<svg xmlns="http://www.w3.org/2000/svg" viewBox="0 0 500 115" width="500" height="115">
	<style>
		tspan { white-space:pre }
		.shp0 { display: none;fill: #ffffff } 
	</style>
	<path id="Background" class="shp0" d="M-12.06 -29.61L539.19 -29.61L539.19 279.35L-12.06 279.35L-12.06 -29.61Z" />
	<g id="Folder 1">
		<path id="PiLipinas " fill="#ffffff" d="M164.1 79.88Q164.1 87.31 158.77 92.62Q153.52 97.85 146.06 97.85L131.31 97.85L131.31 115L114.91 115L114.91 78.24L109.17 78.24L109.17 61.91L146.06 61.91Q153.52 61.91 158.77 67.22Q164.1 72.44 164.1 79.88ZM147.7 79.88Q147.7 75.79 142.78 75.79L131.31 75.79L131.31 83.96L142.78 83.96Q147.7 83.96 147.7 79.88ZM184.59 61.91L184.59 115L168.2 115L168.2 61.91L184.59 61.91ZM237.88 98.66L237.88 115L188.69 115L188.69 61.91L205.09 61.91L205.09 98.66L237.88 98.66ZM258.37 61.91L258.37 115L241.98 115L241.98 61.91L258.37 61.91ZM311.66 79.88Q311.66 87.31 306.33 92.62Q301.08 97.85 293.62 97.85L278.87 97.85L278.87 115L262.47 115L262.47 61.91L293.62 61.91Q301.08 61.91 306.33 67.22Q311.66 72.44 311.66 79.88ZM295.26 79.88Q295.26 75.79 290.34 75.79L278.87 75.79L278.87 83.96L290.34 83.96Q295.26 83.96 295.26 79.88ZM332.15 61.91L332.15 115L315.76 115L315.76 61.91L332.15 61.91ZM385.44 61.91L385.44 115L369.04 115Q369.04 99.81 362.32 92.7Q357.89 88.05 352.65 88.05L352.65 115L336.25 115L336.25 61.91L336.58 61.91Q348.14 61.91 357.65 66.4Q366.09 70.4 369.04 75.79L369.04 61.91L385.44 61.91ZM428.89 61.91L446.92 115L429.71 115L427.49 108.47L408.97 108.47L406.75 115L389.54 115L407.57 61.91L428.89 61.91ZM412.82 97.03L423.64 97.03L418.23 81.18L412.82 97.03ZM500.21 61.91L500.21 78.24L478.57 78.24Q477.83 78.49 477.83 79.22Q477.83 79.63 478.07 80.04L484.47 83.63Q494.47 89.19 494.47 98.66Q494.47 105.44 489.63 110.26Q484.88 115 478.07 115L451.02 115L451.02 98.66L472.66 98.66Q473.4 98.42 473.4 97.68Q473.4 97.28 473.16 96.87L466.76 93.27Q456.76 87.72 456.76 78.24Q456.76 71.46 461.51 66.73Q466.35 61.91 473.16 61.91L500.21 61.91Z" />
		<path id="Mabuhay " fill="#ffffff" d="M63.22 -0.09L63.22 53L46.82 53L46.82 35.03L34.53 53L22.23 35.03L22.23 53L5.83 53L5.83 16.24L0.1 16.24L0.1 -0.09L22.23 -0.09L34.53 17.88L46.82 -0.09L63.22 -0.09ZM106.67 -0.09L124.7 53L107.49 53L105.27 46.47L86.75 46.47L84.53 53L67.32 53L85.35 -0.09L106.67 -0.09ZM90.6 35.03L101.42 35.03L96.01 19.18L90.6 35.03ZM177.99 35.03Q177.99 42.46 172.66 47.77Q167.41 53 159.95 53L128.8 53L128.8 -0.09L159.95 -0.09Q167.41 -0.09 172.66 5.22Q177.99 10.44 177.99 17.88Q177.99 21.06 174.95 26.45Q177.99 31.84 177.99 35.03ZM161.59 17.88Q161.59 13.79 156.67 13.79L145.2 13.79L145.2 21.96L156.67 21.96Q161.59 21.96 161.59 17.88ZM161.59 35.03Q161.59 30.95 156.67 30.95L145.2 30.95L145.2 39.11L156.67 39.11Q161.59 39.11 161.59 35.03ZM231.27 -0.09L231.27 28.5Q231.27 38.62 224.06 45.81Q216.85 53 206.68 53Q196.52 53 189.3 45.81Q182.09 38.62 182.09 28.5L182.09 -0.09L198.48 -0.09L198.48 28.5Q198.48 31.84 200.86 34.29Q203.32 36.66 206.68 36.66Q210.04 36.66 212.42 34.29Q214.88 31.84 214.88 28.5L214.88 -0.09L231.27 -0.09ZM284.56 -0.09L284.56 53L268.16 53L268.16 32.58L251.77 32.58L251.77 53L235.37 53L235.37 -0.09L251.77 -0.09L251.77 20.33L268.16 20.33L268.16 -0.09L284.56 -0.09ZM328.01 -0.09L346.04 53L328.83 53L326.61 46.47L308.09 46.47L305.87 53L288.66 53L306.69 -0.09L328.01 -0.09ZM311.94 35.03L322.76 35.03L317.35 19.18L311.94 35.03ZM383.75 -0.09L403.43 -0.09L384.98 28.09L384.98 53L368.59 53L368.59 28.09L350.14 -0.09L369.82 -0.09L376.78 10.93L383.75 -0.09Z" />
	</g>
</svg>